<svg xmlns="http://www.w3.org/2000/svg" viewBox="0 0 300 450" width="300" height="450">
  <rect width="300" height="450" fill="#f2f2f2" rx="15" />
  <g transform="translate(75, 40)">
    <!-- Head -->
    <circle cx="75" cy="40" r="35" fill="#e6e6e6" stroke="#333" stroke-width="1.5" />
    
    <!-- Shoulders and Torso - Wider for endomorph -->
    <path d="M15,100 C15,90 135,90 135,100 L140,220 C140,230 10,230 10,220 Z" fill="#e6e6e6" stroke="#333" stroke-width="1.5" />
    
    <!-- Broader chest for endomorph -->
    <path d="M40,140 C55,150 95,150 110,140" fill="none" stroke="#333" stroke-width="1" />
    
    <!-- Arms - Fuller for endomorph -->
    <path d="M15,100 C15,100 5,140 2,190 C1,210 9,210 10,190 C11,170 18,130 18,110" fill="#e6e6e6" stroke="#333" stroke-width="1.5" />
    <ellipse cx="12" cy="145" rx="10" ry="18" fill="#e6e6e6" stroke="#333" stroke-width="1" />
    
    <path d="M135,100 C135,100 145,140 148,190 C149,210 141,210 140,190 C139,170 132,130 132,110" fill="#e6e6e6" stroke="#333" stroke-width="1.5" />
    <ellipse cx="138" cy="145" rx="10" ry="18" fill="#e6e6e6" stroke="#333" stroke-width="1" />
    
    <!-- Stomach curve for endomorph -->
    <path d="M45,160 C55,180 95,180 105,160" fill="none" stroke="#333" stroke-width="1" />
    <path d="M40,190 C55,210 95,210 110,190" fill="none" stroke="#333" stroke-width="1" />
    
    <!-- Legs - Fuller for endomorph -->
    <path d="M50,220 C50,220 45,300 40,360 C39,370 51,370 50,360 C49,320 53,260 53,230" fill="#e6e6e6" stroke="#333" stroke-width="1.5" />
    <ellipse cx="47" cy="280" rx="14" ry="20" fill="#e6e6e6" stroke="#333" stroke-width="1" />
    
    <path d="M100,220 C100,220 105,300 110,360 C111,370 99,370 100,360 C101,320 97,260 97,230" fill="#e6e6e6" stroke="#333" stroke-width="1.5" />
    <ellipse cx="103" cy="280" rx="14" ry="20" fill="#e6e6e6" stroke="#333" stroke-width="1" />
  </g>
  
  <!-- Body Type Label -->
  <text x="150" y="425" font-family="Arial, sans-serif" font-size="24" font-weight="bold" text-anchor="middle" fill="#333">Ендоморф</text>
</svg> 